<svg width="70" height="35" viewBox="0 0 70 35" fill="none" xmlns="http://www.w3.org/2000/svg">
<path fill-rule="evenodd" clip-rule="evenodd" d="M0 28.8889H0.539539V31.2955H3.29878V28.8889H3.83832V34.3056H3.29878V31.868H0.539539V34.3056H0V28.8889Z" fill="#FFFFFE"/>
<path fill-rule="evenodd" clip-rule="evenodd" d="M9.89322 31.6123V31.5973C9.89322 30.4077 8.95789 29.4351 7.66764 29.4351C6.37755 29.4351 5.45828 30.3928 5.45828 31.5823V31.5973C5.45828 32.7868 6.39361 33.7594 7.68386 33.7594C8.97395 33.7594 9.89322 32.8019 9.89322 31.6123ZM4.79785 31.6123V31.5972C4.79785 30.1533 5.96709 28.8889 7.68477 28.8889C9.4023 28.8889 10.5553 30.1384 10.5553 31.5823V31.5972C10.5553 33.0412 9.38609 34.3056 7.66856 34.3056C5.95103 34.3056 4.79785 33.0562 4.79785 31.6123Z" fill="#FFFFFE"/>
<path fill-rule="evenodd" clip-rule="evenodd" d="M11.5151 28.8889H12.0881L13.9142 31.8448L15.7403 28.8889H16.313V34.3056H15.7475V29.918L13.9214 32.8199H13.8926L12.0666 29.9258V34.3056H11.5151V28.8889Z" fill="#FFFFFE"/>
<path fill-rule="evenodd" clip-rule="evenodd" d="M18.2319 28.8889H22.0327V29.446H18.8253V31.2955H21.6947V31.8526H18.8253V33.7485H22.0702V34.3056H18.2319V28.8889Z" fill="#FFFFFE"/>
<path fill-rule="evenodd" clip-rule="evenodd" d="M26.9798 31.8448H25.4785V33.7561H27.075C27.7951 33.7561 28.2435 33.3925 28.2435 32.7889V32.7734C28.2435 32.1853 27.8087 31.8448 26.9798 31.8448ZM27.9785 30.3204C27.9785 29.7865 27.6049 29.4383 26.9255 29.4383H25.4785V31.3033H26.8848C27.5301 31.3033 27.9785 30.9705 27.9785 30.336V30.3204ZM24.9492 28.8889H26.9737C27.5172 28.8889 27.9453 29.067 28.217 29.3687C28.4139 29.6008 28.5227 29.887 28.5227 30.2354V30.2508C28.5227 30.9549 28.1422 31.3187 27.7686 31.5044C28.3324 31.6977 28.7875 32.0693 28.7875 32.8121V32.8276C28.7875 33.7561 28.1015 34.3056 27.062 34.3056H24.9492V28.8889Z" fill="#FFFFFE"/>
<path fill-rule="evenodd" clip-rule="evenodd" d="M34.8426 31.6123V31.5973C34.8426 30.4077 33.9073 29.4351 32.617 29.4351C31.3269 29.4351 30.4077 30.3928 30.4077 31.5823V31.5973C30.4077 32.7868 31.343 33.7594 32.6332 33.7594C33.9233 33.7594 34.8426 32.8019 34.8426 31.6123ZM29.7471 31.6123V31.5972C29.7471 30.1533 30.9163 28.8889 32.634 28.8889C34.3515 28.8889 35.5046 30.1384 35.5046 31.5823V31.5972C35.5046 33.0412 34.3353 34.3056 32.6178 34.3056C30.9003 34.3056 29.7471 33.0562 29.7471 31.6123Z" fill="#FFFFFE"/>
<path fill-rule="evenodd" clip-rule="evenodd" d="M40.2264 28.8889L38.2709 31.5431L40.3023 34.3056H39.5898L37.892 31.9687L36.1942 34.3056H35.5044L37.5357 31.5431L35.5802 28.8889H36.2851L37.9071 31.1174L39.5291 28.8889H40.2264Z" fill="#FFFFFE"/>
<path fill-rule="evenodd" clip-rule="evenodd" d="M47.3171 31.6123V31.5973C47.3171 30.4077 46.3818 29.4351 45.0915 29.4351C43.8014 29.4351 42.8821 30.3928 42.8821 31.5823V31.5973C42.8821 32.7868 43.8175 33.7594 45.1077 33.7594C46.3978 33.7594 47.3171 32.8019 47.3171 31.6123ZM42.2217 31.6123V31.5972C42.2217 30.1533 43.3911 28.8889 45.1086 28.8889C46.8262 28.8889 47.9792 30.1384 47.9792 31.5823V31.5972C47.9792 33.0412 46.8101 34.3056 45.0924 34.3056C43.3749 34.3056 42.2217 33.0562 42.2217 31.6123Z" fill="#FFFFFE"/>
<path fill-rule="evenodd" clip-rule="evenodd" d="M48.9385 28.8889H52.7768V29.4538H49.5413V31.3883H52.4334V31.9454H49.5413V34.3056H48.9385V28.8889Z" fill="#FFFFFE"/>
<path fill-rule="evenodd" clip-rule="evenodd" d="M52.7769 28.8889H56.6151V29.4538H53.3798V31.3883H56.2719V31.9454H53.3798V34.3056H52.7769V28.8889Z" fill="#FFFFFE"/>
<path fill-rule="evenodd" clip-rule="evenodd" d="M57.5747 34.3056H58.5342V28.8889H57.5747V34.3056Z" fill="#FFFFFE"/>
<path fill-rule="evenodd" clip-rule="evenodd" d="M59.4941 31.6123V31.5972C59.4941 30.116 60.6195 28.8889 62.1859 28.8889C63.1515 28.8889 63.7295 29.2256 64.2616 29.7194L63.8511 30.1533C63.4025 29.7344 62.9006 29.4351 62.1783 29.4351C60.9997 29.4351 60.1176 30.3778 60.1176 31.5823V31.5972C60.1176 32.8093 61.0072 33.7594 62.1783 33.7594C62.9082 33.7594 63.3872 33.4826 63.8967 33.0039L64.2921 33.3854C63.737 33.9391 63.1287 34.3056 62.163 34.3056C60.6271 34.3056 59.4941 33.116 59.4941 31.6123Z" fill="#FFFFFE"/>
<path fill-rule="evenodd" clip-rule="evenodd" d="M65.2515 28.8889H69.0523V29.446H65.845V31.2955H68.7142V31.8526H65.845V33.7485H69.0898V34.3056H65.2515V28.8889Z" fill="#FFFFFE"/>
<path fill-rule="evenodd" clip-rule="evenodd" d="M20.1512 27.0834H12.6319V16.9254H7.7509V27.0834H0V0.902832H7.7509V10.6418H12.6319V0.902832H20.1512V27.0834Z" fill="#FFFFFE"/>
<path fill-rule="evenodd" clip-rule="evenodd" d="M55.012 18.7919C58.075 18.7919 60.5581 16.4173 60.5581 13.4871C60.5581 10.5577 58.075 8.18265 55.012 8.18265C51.9486 8.18265 49.4657 10.5577 49.4657 13.4871C49.4657 16.4173 51.9486 18.7919 55.012 18.7919ZM47.9569 13.4871C47.9569 9.76064 51.1155 6.73938 55.0121 6.73938C58.9086 6.73938 62.0677 9.76064 62.0677 13.4871C62.0677 17.2142 58.9086 20.2354 55.0121 20.2354C51.1155 20.2354 47.9569 17.2142 47.9569 13.4871ZM38.1328 13.4871C39.0058 13.3814 40.461 12.4267 40.9737 11.8173C40.7935 12.5729 40.7798 14.7598 40.9904 15.5153C40.4052 14.6538 39.0198 13.5932 38.1328 13.4871ZM33.0607 6.3433C34.1694 6.3433 35.0426 7.39012 35.0426 8.58315C35.0426 9.77617 34.1694 10.8236 33.0607 10.8236H29.2499V6.3433H33.0607ZM33.0468 16.2972C34.1553 16.2972 35.0286 17.3445 35.0286 18.5371C35.0286 19.7303 34.1553 20.7772 33.0468 20.7772H29.236V16.2972H33.0468ZM55.0074 27.0833C62.7725 27.0805 69.0916 20.9097 69.0898 13.4819C69.0883 5.89738 62.7725 0.00561725 55.0074 3.9317e-06C47.2514 -0.0053483 43.2884 5.45523 42.3092 7.65931C42.3183 4.35058 38.9087 0.445153 34.9203 0.440976H22.0703V26.9514L34.0509 26.9536C38.8811 26.9536 42.3182 22.9505 42.3241 19.5179C43.4266 21.6782 47.2514 27.0859 55.0074 27.0833Z" fill="#FFFFFE"/>
<path fill-rule="evenodd" clip-rule="evenodd" d="M66.775 1.67661V1.03181H67.2255C67.4561 1.03181 67.7017 1.07945 67.7017 1.33737C67.7017 1.65761 67.4511 1.67661 67.1705 1.67661H66.775ZM66.7749 1.94401H67.1554L67.7318 2.84671H68.1026L67.4811 1.92976C67.8018 1.89148 68.0473 1.72927 68.0473 1.3565C68.0473 0.94588 67.7919 0.764389 67.2756 0.764389H66.444V2.84671H66.7749V1.94401ZM67.1758 3.61111C68.2079 3.61111 69.0898 2.84672 69.0898 1.80081C69.0898 0.764393 68.2079 0 67.1758 0C66.1333 0 65.2515 0.764393 65.2515 1.80081C65.2515 2.84672 66.1333 3.61111 67.1758 3.61111ZM65.6317 1.8008C65.6317 0.945883 66.308 0.300949 67.1753 0.300949C68.032 0.300949 68.7084 0.945883 68.7084 1.8008C68.7084 2.67012 68.032 3.31016 67.1753 3.31016C66.308 3.31016 65.6317 2.67012 65.6317 1.8008Z" fill="#FFFFFE"/>
</svg>
